<?xml version="1.0" encoding="UTF-8"?>
<svg height="16px" viewBox="0 0 16 16" width="16px" xmlns="http://www.w3.org/2000/svg" xmlns:xlink="http://www.w3.org/1999/xlink">
    <filter id="a" height="100%" width="100%" x="0%" y="0%">
        <feColorMatrix color-interpolation-filters="sRGB" values="0 0 0 0 1 0 0 0 0 1 0 0 0 0 1 0 0 0 1 0"/>
    </filter>
    <mask id="b">
        <g filter="url(#a)">
            <rect fill-opacity="0.1" height="19.2" width="19.2" x="-1.6" y="-1.6"/>
        </g>
    </mask>
    <clipPath id="c">
        <rect height="152" width="192"/>
    </clipPath>
    <g mask="url(#b)">
        <g clip-path="url(#c)" transform="matrix(1 0 0 1 -168 -16)">
            <path d="m 72.15625 25.230469 c -29.824219 0 -54 24.175781 -54 54 c 0.011719 0.390625 0.023438 0.78125 0.042969 1.171875 c 0.453125 -29.484375 24.472656 -53.152344 53.957031 -53.171875 c 29.355469 0.015625 53.320312 23.480469 53.960938 52.828125 c 0.015624 -0.277344 0.027343 -0.550782 0.039062 -0.828125 c 0 -29.824219 -24.175781 -54 -54 -54 z m 0 0"/>
        </g>
    </g>
    <g stroke="#ffffff" stroke-width="1.31290719759">
        <path d="m 11.68357565502 4.07030839793 c -0.37890565347 -0.71874887051 -0.96874847516 -1.32031043173 -1.70312233172 -1.75390350768 c -0.73046758136 -0.42968682944 -1.61718493714 -0.69531141152 -2.57421470145 -0.69531141152 c -1.18359188988 -0.00390625512 -2.16796535108 0.30468701851 -2.91015167198 0.73437384796 c -0.74218634959 0.42187433642 -1.06249833407 0.91796729919 -1.06249833407 0.91796729919 c -0.12499983101 0.10937484496 -0.19921845736 0.26562459069 -0.19531221085 0.43359307595 c 0.00390624651 0.16406223875 0.08203111938 0.32031201317 0.21093716821 0.42187433642 l 1.02734214415 0.82812371547 c 0.21093716821 0.16796848526 0.51171794882 0.16015599224 0.714842624 -0.01562498605 c 0 0 0.12890604883 -0.23046837208 0.52343668835 -0.45703052634 c 0.39843685735 -0.22265590774 0.91796729919 -0.40624937906 1.69140359218 -0.40624937906 c 0.67187394106 -0.00390621783 1.26171676274 0.24999963333 1.66405989528 0.59374906819 c 0.19921842867 0.16796851395 0.34765571006 0.3593744496 0.43749932246 0.53515542789 c 0.09374983023 0.17578097829 0.12890604883 0.32812447751 0.12499980232 0.4453117868 c 0 0.39453063952 -0.07812487286 0.65234273719 -0.18749971782 0.87499864493 c -0.08593736589 0.16406223875 -0.19531218216 0.30859327363 -0.33593697053 0.44921803331 c -0.21484341472 0.21484341472 -0.49999920928 0.41015562557 -0.82421746896 0.58984282168 c -0.32031198448 0.1796872248 -0.66796769455 0.33984321704 -1.01952965112 0.53515542789 c -0.40234310386 0.22265590774 -0.82421744028 0.53906164571 -1.14062320693 1.01952965112 c -0.15624974573 0.23828086511 -0.27734330154 0.50781170231 -0.3554681744 0.79296749687 c -0.07812490155 0.28515579456 -0.11328109147 0.58593657517 -0.11328109147 0.89062360229 v 0.59374906819 c 0 0.30859327363 0.24999960464 0.55859287827 0.55468663176 0.55859287827 h 1.3437479108 c 0.30859324495 0 0.55468663176 -0.24999960464 0.55468663176 -0.55859287827 c 0 0 0 -0.26562459069 0 -0.59374906819 c 0 -0.1171873093 0.01562495736 -0.19140593565 0.0273436969 -0.24218711162 c 0.02343745039 -0.07031237984 0.03515618992 -0.0898436124 0.07031237984 -0.13281229534 c 0.03906243643 -0.04296868294 0.11328109147 -0.10546859845 0.24999960464 -0.18359347131 c 0.20312470387 -0.11328106279 0.52734293486 -0.265624562 0.89062360229 -0.46093677285 c 0.55078038525 -0.30078078061 1.21484186197 -0.70703013098 1.77734098676 -1.37890407204 c 0.28124954805 -0.33593697053 0.52734290618 -0.73828010307 0.69921763796 -1.20312312243 c 0.17187473178 -0.46874926587 0.26562459069 -0.98827970771 0.26562459069 -1.5507788325 c 0 -0.56640534261 -0.15624974573 -1.10546701701 -0.40624937906 -1.58202874722 z m 0 0"/>
        <path d="m 6.8828019335 13.28123144795 c -0.83593617981 0 -1.51171636738 0.67578018757 -1.51171636738 1.51562261389 c 0 0.83202996199 0.67578018757 1.51171639607 1.51171636738 1.51171639607 c 0.8359362085 0 1.51562264258 -0.67968643408 1.51562264258 -1.51171639607 c 0 -0.83984242632 -0.67968643408 -1.51562261389 -1.51562264258 -1.51562261389 z m 0 0"/>
    </g>
</svg>
