<?xml version="1.0" encoding="UTF-8"?>
<svg height="16px" viewBox="0 0 16 16" width="16px" xmlns="http://www.w3.org/2000/svg">
    <g stroke="#ffffff" stroke-width="1.31290719759">
        <path d="m 11.99607558139 4.05077691156 c -0.37890565347 -0.71874887051 -0.96874847516 -1.31640418522 -1.70312233172 -1.74999723249 c -0.73046761005 -0.43359307595 -1.61718496583 -0.69531142013 -2.57421470145 -0.69531142013 c -1.18359188988 -0.00390624364 -2.16796535108 0.30468702712 -2.91015170066 0.73046761005 c -0.7421863209 0.42578058293 -1.06640458058 0.9218735457 -1.06640458058 0.9218735457 c -0.12499980232 0.10546859845 -0.19531218216 0.26562459069 -0.19140593565 0.42968682944 c 0.00390624651 0.16796848526 0.08203111938 0.32031198448 0.21093716821 0.42578058293 l 1.02734214415 0.82421746896 c 0.21093716821 0.16796848526 0.51171794882 0.16406223875 0.714842624 -0.01562498605 c 0 0 0.12499980232 -0.22656215426 0.52343668835 -0.45312427983 c 0.39843685735 -0.22656215426 0.91796729919 -0.40624937906 1.69140359218 -0.41015562557 c 0.67187394106 0 1.26171676274 0.24999960464 1.66405989528 0.59374906819 c 0.19921842867 0.17187473178 0.34765568138 0.36328069611 0.43749929378 0.53515542789 c 0.09374985891 0.17578097829 0.12499980232 0.33203072402 0.12499980232 0.44921803331 c 0 0.39453063952 -0.07812487286 0.65234273719 -0.18749968914 0.87109239842 c -0.08593736589 0.16406223875 -0.19531221085 0.31249949146 -0.33593697053 0.45312427983 c -0.21484341472 0.21093716821 -0.49999923797 0.40624935037 -0.82421746896 0.58593657517 c -0.32031198448 0.18359347131 -0.66796769455 0.34374946355 -1.01952965112 0.53515542789 c -0.40234313254 0.22265587906 -0.82421746896 0.54296789223 -1.14062320693 1.01952965112 c -0.15624974573 0.23828086511 -0.27734333022 0.50781170231 -0.35546820309 0.79296749687 c -0.07812487286 0.28906204107 -0.11328106279 0.58593657517 -0.11328106279 0.8945298488 v 0.59374906819 c 0 0.30468702712 0.24999960464 0.55468663176 0.55468663176 0.55468663176 h 1.34374788212 c 0.30859327363 0 0.55468663176 -0.24999960464 0.55468663176 -0.55468663176 c 0 0 0 -0.2695308372 0 -0.59374906819 c 0 -0.12109355581 0.01562498605 -0.19531221085 0.02734372558 -0.24218711162 c 0.02343745039 -0.07421865504 0.03515618992 -0.0898436124 0.07031237984 -0.13671854186 c 0.03906243643 -0.03906243643 0.11328106279 -0.10546859845 0.24999960464 -0.1796872248 c 0.20312467519 -0.11328106279 0.52343668835 -0.26562459069 0.89062360229 -0.46484301936 c 0.55078038525 -0.30078078061 1.21484183328 -0.70703013098 1.77734095807 -1.37890410072 c 0.28124957674 -0.33593697053 0.52734293486 -0.73828007439 0.69921766664 -1.20312309375 s 0.26562459069 -0.98827970771 0.26562459069 -1.54687258599 c 0 -0.57031158912 -0.15624977441 -1.10937326352 -0.40624937906 -1.58593502242 z m 0 0"/>
        <path d="m 7.19530185987 13.26169999028 c -0.83593617981 0 -1.51171636738 0.67968643408 -1.51171636738 1.51562261389 s 0.67578018757 1.51171636738 1.51171636738 1.51171636738 s 1.51562261389 -0.67578018757 1.51562261389 -1.51171636738 s -0.67968643408 -1.51562261389 -1.51562261389 -1.51562261389 z m 0 0"/>
    </g>
</svg>
