<?xml version="1.0" encoding="UTF-8"?>
<svg height="128px" viewBox="0 0 128 128" width="128px" xmlns="http://www.w3.org/2000/svg">
    <path d="m 108.863281 114.042969 h -88 c -4.417969 0 -8 -3.582031 -8 -8 v -80 c 0 -4.417969 3.582031 -8 8 -8 h 88 c 4.417969 0 8 3.582031 8 8 v 80 c 0 4.417969 -3.582031 8 -8 8 z m 0 0" fill="#1a5fb4"/>
    <path d="m 108.863281 112.042969 h -88 c -4.417969 0 -8 -3.582031 -8 -8 v -80 c 0 -4.417969 3.582031 -8 8 -8 h 88 c 4.417969 0 8 3.582031 8 8 v 80 c 0 4.417969 -3.582031 8 -8 8 z m 0 0" fill="#d5d3cf"/>
    <path d="m 108.863281 106.042969 h -88 c -4.417969 0 -8 -3.582031 -8 -8 v -80 c 0 -4.417969 3.582031 -8 8 -8 h 88 c 4.417969 0 8 3.582031 8 8 v 80 c 0 4.417969 -3.582031 8 -8 8 z m 0 0" fill="#f6f5f4"/>
    <g fill="#d5d3cf">
        <path d="m 111 98 c 0 1.105469 -0.894531 2 -2 2 s -2 -0.894531 -2 -2 s 0.894531 -2 2 -2 s 2 0.894531 2 2 z m 0 0"/>
        <path d="m 111.21875 78.398438 c 0 1.105468 -0.898438 2 -2 2 c -1.105469 0 -2 -0.894532 -2 -2 c 0 -1.105469 0.894531 -2 2 -2 c 1.101562 0 2 0.894531 2 2 z m 0 0"/>
        <path d="m 111.21875 68.398438 c 0 1.105468 -0.898438 2 -2 2 c -1.105469 0 -2 -0.894532 -2 -2 c 0 -1.105469 0.894531 -2 2 -2 c 1.101562 0 2 0.894531 2 2 z m 0 0"/>
        <path d="m 111.21875 58.398438 c 0 1.105468 -0.898438 2 -2 2 c -1.105469 0 -2 -0.894532 -2 -2 c 0 -1.105469 0.894531 -2 2 -2 c 1.101562 0 2 0.894531 2 2 z m 0 0"/>
        <path d="m 111.21875 48.398438 c 0 1.105468 -0.898438 2 -2 2 c -1.105469 0 -2 -0.894532 -2 -2 c 0 -1.105469 0.894531 -2 2 -2 c 1.101562 0 2 0.894531 2 2 z m 0 0"/>
        <path d="m 111.21875 38.398438 c 0 1.105468 -0.898438 2 -2 2 c -1.105469 0 -2 -0.894532 -2 -2 c 0 -1.105469 0.894531 -2 2 -2 c 1.101562 0 2 0.894531 2 2 z m 0 0"/>
        <path d="m 111.21875 28.398438 c 0 1.105468 -0.898438 2 -2 2 c -1.105469 0 -2 -0.894532 -2 -2 c 0 -1.105469 0.894531 -2 2 -2 c 1.101562 0 2 0.894531 2 2 z m 0 0"/>
        <path d="m 111.21875 18.398438 c 0 1.105468 -0.898438 2 -2 2 c -1.105469 0 -2 -0.894532 -2 -2 c 0 -1.105469 0.894531 -2 2 -2 c 1.101562 0 2 0.894531 2 2 z m 0 0"/>
        <path d="m 111.0625 87.769531 c 0 1.101563 -0.898438 2 -2 2 c -1.105469 0 -2 -0.898437 -2 -2 c 0 -1.105469 0.894531 -2 2 -2 c 1.101562 0 2 0.894531 2 2 z m 0 0"/>
        <path d="m 23.21875 98.398438 c 0 1.105468 -0.898438 2 -2 2 c -1.105469 0 -2 -0.894532 -2 -2 c 0 -1.105469 0.894531 -2 2 -2 c 1.101562 0 2 0.894531 2 2 z m 0 0"/>
        <path d="m 23.21875 88.398438 c 0 1.105468 -0.898438 2 -2 2 c -1.105469 0 -2 -0.894532 -2 -2 c 0 -1.105469 0.894531 -2 2 -2 c 1.101562 0 2 0.894531 2 2 z m 0 0"/>
        <path d="m 23.21875 78.398438 c 0 1.105468 -0.898438 2 -2 2 c -1.105469 0 -2 -0.894532 -2 -2 c 0 -1.105469 0.894531 -2 2 -2 c 1.101562 0 2 0.894531 2 2 z m 0 0"/>
        <path d="m 23.21875 68.398438 c 0 1.105468 -0.898438 2 -2 2 c -1.105469 0 -2 -0.894532 -2 -2 c 0 -1.105469 0.894531 -2 2 -2 c 1.101562 0 2 0.894531 2 2 z m 0 0"/>
        <path d="m 23.21875 58.398438 c 0 1.105468 -0.898438 2 -2 2 c -1.105469 0 -2 -0.894532 -2 -2 c 0 -1.105469 0.894531 -2 2 -2 c 1.101562 0 2 0.894531 2 2 z m 0 0"/>
        <path d="m 23.21875 48.398438 c 0 1.105468 -0.898438 2 -2 2 c -1.105469 0 -2 -0.894532 -2 -2 c 0 -1.105469 0.894531 -2 2 -2 c 1.101562 0 2 0.894531 2 2 z m 0 0"/>
        <path d="m 23.21875 38.398438 c 0 1.105468 -0.898438 2 -2 2 c -1.105469 0 -2 -0.894532 -2 -2 c 0 -1.105469 0.894531 -2 2 -2 c 1.101562 0 2 0.894531 2 2 z m 0 0"/>
        <path d="m 23.21875 28.398438 c 0 1.105468 -0.898438 2 -2 2 c -1.105469 0 -2 -0.894532 -2 -2 c 0 -1.105469 0.894531 -2 2 -2 c 1.101562 0 2 0.894531 2 2 z m 0 0"/>
        <path d="m 23.21875 18.398438 c 0 1.105468 -0.898438 2 -2 2 c -1.105469 0 -2 -0.894532 -2 -2 c 0 -1.105469 0.894531 -2 2 -2 c 1.101562 0 2 0.894531 2 2 z m 0 0"/>
    </g>
    <path d="m 84.15625 45.175781 c -0.160156 -0.160156 -0.339844 -0.308593 -0.535156 -0.441406 l -0.203125 -0.042969 c -0.105469 -0.046875 -0.1875 -0.121094 -0.246094 -0.210937 c -0.3125 -0.148438 -0.644531 -0.246094 -0.980469 -0.292969 c -0.289062 -0.039062 -0.492187 -0.308594 -0.453125 -0.601562 c 0.039063 -0.292969 0.3125 -0.496094 0.601563 -0.457032 c 0.332031 0.050782 0.667968 0.132813 0.984375 0.257813 c 0.054687 -0.230469 0.082031 -0.46875 0.082031 -0.710938 c 0 -0.523437 -0.125 -1.054687 -0.386719 -1.554687 c -0.300781 -0.570313 -0.738281 -1.011719 -1.253906 -1.316406 c -0.449219 -0.265626 -0.960937 -0.425782 -1.484375 -0.464844 c -0.039062 0.480468 -0.152344 0.953125 -0.347656 1.414062 c -0.117188 0.269532 -0.429688 0.394532 -0.703125 0.277344 c -0.269531 -0.113281 -0.394531 -0.429688 -0.277344 -0.699219 c 0.1875 -0.441406 0.277344 -0.898437 0.28125 -1.351562 l -0.007813 -0.195313 c -0.035156 -0.625 -0.246093 -1.230468 -0.597656 -1.746094 c -0.355468 -0.515624 -0.851562 -0.9375 -1.46875 -1.207031 c -0.441406 -0.1875 -0.898437 -0.277343 -1.351562 -0.277343 c -0.867188 0 -1.703125 0.332031 -2.335938 0.921874 c 0.117188 0.402344 0.1875 0.824219 0.1875 1.265626 c 0 0.296874 -0.242187 0.535156 -0.535156 0.535156 c -0.296875 0 -0.535156 -0.238282 -0.535156 -0.535156 c 0 -0.429688 -0.078125 -0.839844 -0.226563 -1.222657 h 0.003907 c -0.246094 -0.640625 -0.683594 -1.195312 -1.238282 -1.582031 c -0.558594 -0.390625 -1.230468 -0.621094 -1.964844 -0.621094 c -0.632812 0 -1.226562 0.175782 -1.738281 0.472656 c -0.40625 0.242188 -0.757812 0.566407 -1.035156 0.949219 c 0.542969 0.742188 0.859375 1.65625 0.859375 2.640625 c 0 0.292969 -0.238281 0.53125 -0.535156 0.53125 c -0.292969 0 -0.53125 -0.238281 -0.53125 -0.53125 c 0 -0.867187 -0.320313 -1.652344 -0.851563 -2.257812 c -0.628906 -0.714844 -1.546875 -1.167969 -2.574219 -1.167969 c -0.714843 0 -1.371093 0.21875 -1.921874 0.589844 c -0.546876 0.371093 -0.984376 0.898437 -1.242188 1.519531 c -0.164062 0.40625 -0.261719 0.851562 -0.261719 1.316406 c 0 0.292969 -0.238281 0.53125 -0.53125 0.53125 c -0.296875 0 -0.535156 -0.238281 -0.535156 -0.53125 c 0 -0.433594 0.0625 -0.851562 0.179687 -1.246094 c -0.402343 -0.164062 -0.839843 -0.253906 -1.285156 -0.253906 c -0.253906 0 -0.507812 0.027344 -0.765625 0.085938 c -0.761719 0.175781 -1.398437 0.585937 -1.863281 1.140625 c -0.335938 0.398437 -0.574219 0.875 -0.699219 1.386719 c 1.101563 0.019531 2.203125 0.445312 3.054688 1.277343 c 0.210937 0.207031 0.214843 0.542969 0.007812 0.753907 c -0.207031 0.210937 -0.542969 0.210937 -0.753906 0.007812 c -0.667969 -0.652344 -1.53125 -0.976562 -2.394531 -0.980469 c -0.15625 0 -0.3125 0.011719 -0.464844 0.03125 h -0.003906 c -0.726563 0.101563 -1.425782 0.433594 -1.980469 1 c -0.652344 0.664063 -0.976563 1.527344 -0.976563 2.394531 c 0 0.496094 0.105469 0.992188 0.320313 1.453126 c 0.167969 0.359374 0.402344 0.695312 0.707031 0.992187 c 0.34375 0.339844 0.738282 0.585937 1.160156 0.75 c 0.273438 0.105469 0.414063 0.414063 0.304688 0.691406 c -0.105469 0.273438 -0.414062 0.414063 -0.6875 0.304688 c -0.554688 -0.214844 -1.074219 -0.542969 -1.523438 -0.984375 c -0.199218 -0.191406 -0.375 -0.398438 -0.53125 -0.617188 c -0.402343 0.574219 -0.621093 1.265625 -0.621093 1.96875 c 0 0.546875 0.132812 1.09375 0.40625 1.613282 c 0.308593 0.578124 0.757812 1.027343 1.285156 1.335937 c 0.417969 0.242187 0.882813 0.398437 1.363281 0.449219 v -0.03125 c 0 -0.28125 0.023438 -0.558594 0.074219 -0.828125 c 0.054687 -0.289063 0.332031 -0.476563 0.621094 -0.425781 c 0.289062 0.054687 0.480469 0.332031 0.429687 0.621093 c -0.039062 0.207031 -0.058594 0.417969 -0.058594 0.632813 l 0.007813 0.25 l 0.027344 0.25 v 0.007812 c 0.246093 1.671875 1.691406 2.921875 3.386719 2.921875 l 0.246093 -0.007812 c 0.75 -0.054688 1.425781 -0.34375 1.960938 -0.796875 c 0.375 -0.316406 0.683593 -0.710938 0.894531 -1.160156 c 0.121094 -0.265626 0.441406 -0.378907 0.707031 -0.253907 c 0.269531 0.125 0.382813 0.441407 0.257813 0.707031 c -0.230469 0.484376 -0.542969 0.917969 -0.914063 1.285157 c 0.207031 0.644531 0.601563 1.199219 1.117188 1.609375 c 0.585937 0.472656 1.328125 0.75 2.128906 0.75 l 0.25 -0.007813 c 0.507813 -0.035156 0.976563 -0.183593 1.394531 -0.410156 c -0.066406 -0.304687 -0.105468 -0.621094 -0.105468 -0.9375 c 0 -0.65625 0.148437 -1.320313 0.449218 -1.949219 c 0.128906 -0.265625 0.445313 -0.375 0.710938 -0.246094 c 0.265625 0.125 0.378906 0.445313 0.25 0.710938 c -0.230469 0.480469 -0.339844 0.984375 -0.339844 1.484375 c 0 0.347656 0.054688 0.695313 0.15625 1.027344 h 0.003906 c 0.269532 0.871093 0.890625 1.632812 1.777344 2.058593 c 0.480469 0.234376 0.984375 0.339844 1.484375 0.339844 c 0.789063 0 1.5625 -0.273437 2.175781 -0.777344 h 0.003906 c 0.371094 -0.304687 0.683594 -0.695312 0.90625 -1.15625 v -0.003906 c 0.210938 -0.433594 0.320313 -0.886718 0.339844 -1.339844 c 0.011719 -0.292968 0.261719 -0.523437 0.554688 -0.507812 c 0.296875 0.011719 0.523437 0.261719 0.511718 0.554688 c -0.027343 0.59375 -0.171874 1.195312 -0.445312 1.757812 c -0.21875 0.457031 -0.507812 0.859375 -0.847656 1.203125 c 0.628906 0.90625 1.675781 1.472656 2.808594 1.472656 c 0.210937 0 0.421874 -0.019531 0.636718 -0.058593 c 0.824219 -0.15625 1.519532 -0.59375 2.011719 -1.191407 c 0.496094 -0.601562 0.78125 -1.363281 0.78125 -2.171875 v -0.074218 c -0.003906 -0.183594 -0.023437 -0.371094 -0.058594 -0.5625 c -0.085937 -0.453126 -0.257812 -0.867188 -0.496093 -1.230469 c -0.34375 -0.300781 -0.726563 -0.699219 -1.089844 -1.140625 c -0.386719 -0.46875 -0.738282 -0.984375 -0.976563 -1.503906 c -0.15625 -0.34375 -0.269531 -0.695313 -0.273437 -1.066407 c 0 -0.164062 0.023437 -0.332031 0.085937 -0.496093 c 0.058594 -0.164063 0.15625 -0.320313 0.289063 -0.449219 c 0.207031 -0.207031 0.542968 -0.207031 0.753906 0 c 0.207031 0.207031 0.207031 0.546875 0 0.753906 l -0.039062 0.0625 l -0.023438 0.128906 c 0 0.136719 0.054688 0.363281 0.175781 0.625 c 0.121094 0.257813 0.296875 0.550781 0.503907 0.839844 c 0.414062 0.582031 0.953124 1.148437 1.355468 1.496094 l 0.054688 0.046875 l 0.039062 0.058594 c 0.332032 0.492187 0.574219 1.058593 0.691406 1.675781 v 0.003906 l 0.035157 0.261719 l 0.160156 0.007812 c 0.675781 0 1.359375 -0.199218 1.957031 -0.621094 c 0.476563 -0.335937 0.839844 -0.765624 1.082032 -1.246093 c 0.246093 -0.484375 0.375 -1.019531 0.375 -1.558594 c 0 -0.503906 -0.113282 -1.011719 -0.339844 -1.484375 c -0.210938 0.070312 -0.425782 0.121094 -0.640625 0.160156 c -0.289063 0.050782 -0.566407 -0.144531 -0.617188 -0.433594 c -0.050781 -0.292968 0.144531 -0.566406 0.4375 -0.617187 c 0.941407 -0.164063 1.808594 -0.714844 2.34375 -1.597656 c 0.339844 -0.554688 0.5 -1.167969 0.5 -1.773438 c 0 -0.890625 -0.347656 -1.761719 -0.988281 -2.40625 z m -24.445312 -4.070312 c 0.511718 -0.601563 1.1875 -1.03125 1.914062 -1.3125 c 0.730469 -0.277344 1.511719 -0.414063 2.261719 -0.414063 c 0.730469 0 1.433593 0.125 2.027343 0.402344 c 0.265626 0.121094 0.382813 0.4375 0.261719 0.707031 c -0.125 0.265625 -0.441406 0.382813 -0.710937 0.261719 c -0.410156 -0.195312 -0.972656 -0.304688 -1.578125 -0.304688 c -0.621094 0 -1.28125 0.113282 -1.878907 0.34375 c -0.59375 0.230469 -1.117187 0.570313 -1.484374 1.003907 c -0.1875 0.226562 -0.523438 0.253906 -0.75 0.0625 c -0.222657 -0.191407 -0.253907 -0.527344 -0.0625 -0.75 z m 12.144531 12.613281 c -0.621094 0 -1.183594 -0.070312 -1.695313 -0.1875 c 0.011719 0.144531 0.023438 0.308594 0.023438 0.484375 c 0 0.347656 -0.039063 0.746094 -0.148438 1.160156 c -0.109375 0.417969 -0.296875 0.855469 -0.585937 1.277344 c -0.167969 0.242187 -0.5 0.300781 -0.742188 0.132813 c -0.242187 -0.167969 -0.300781 -0.496094 -0.136719 -0.742188 c 0.214844 -0.308594 0.347657 -0.628906 0.433594 -0.941406 c 0.082032 -0.3125 0.109375 -0.613282 0.109375 -0.886719 c 0.003907 -0.378906 -0.054687 -0.6875 -0.097656 -0.867187 c -0.257813 -0.117188 -0.5 -0.25 -0.722656 -0.398438 c -0.894531 -0.578125 -1.492188 -1.339844 -1.867188 -2.066406 c -0.253906 -0.488282 -0.40625 -0.957032 -0.488281 -1.367188 c -0.046875 -0.230468 -0.070312 -0.441406 -0.070312 -0.636718 c 0 -0.292969 0.238281 -0.535157 0.535156 -0.535157 c 0.292968 0 0.535156 0.242188 0.535156 0.535157 c -0.003906 0.15625 0.03125 0.414062 0.113281 0.710937 c 0.085938 0.296875 0.21875 0.632813 0.414063 0.96875 c 0.390625 0.679687 1.007812 1.363281 1.960937 1.804687 c 0.640625 0.296876 1.433594 0.488282 2.429688 0.488282 c 0.292969 0 0.53125 0.238281 0.53125 0.53125 c 0 0.296875 -0.238281 0.535156 -0.53125 0.535156 z m 3.757812 -3.894531 c -0.113281 0.273437 -0.421875 0.40625 -0.695312 0.296875 c -0.273438 -0.109375 -0.40625 -0.417969 -0.296875 -0.691406 v -0.011719 l 0.015625 -0.046875 l 0.058593 -0.191406 c 0.039063 -0.167969 0.078126 -0.40625 0.078126 -0.667969 v -0.035157 c -0.734376 0.246094 -1.414063 0.359376 -2.039063 0.359376 c -0.945313 0 -1.765625 -0.257813 -2.429687 -0.652344 c -0.667969 -0.394532 -1.1875 -0.914063 -1.578126 -1.445313 c -0.4375 -0.601562 -1.015624 -1.136719 -1.679687 -1.519531 s -1.40625 -0.609375 -2.195313 -0.613281 c -0.691406 0.003906 -1.425781 0.175781 -2.195312 0.597656 c -0.726562 0.398437 -1.195312 0.929687 -1.496094 1.515625 c -0.300781 0.585938 -0.429687 1.222656 -0.429687 1.804688 c 0 0.539062 0.113281 1.027343 0.261719 1.335937 c 0.125 0.265625 0.011718 0.582031 -0.253907 0.710937 c -0.265625 0.125 -0.585937 0.011719 -0.710937 -0.253906 c -0.230469 -0.492187 -0.363282 -1.113281 -0.363282 -1.792968 c 0 -0.675782 0.136719 -1.414063 0.464844 -2.121094 c -0.660156 0.152344 -1.277344 0.21875 -1.835937 0.21875 c -0.304688 0 -0.589844 -0.019532 -0.859375 -0.054688 l -0.101563 0.199219 l -0.007812 0.007813 l -0.027344 0.039062 l -0.113281 0.152344 c -0.097656 0.140625 -0.234375 0.34375 -0.378906 0.601562 c -0.292969 0.511719 -0.625 1.234375 -0.785157 2.046875 c -0.058593 0.289063 -0.339843 0.480469 -0.628906 0.421875 s -0.476563 -0.339844 -0.417969 -0.632812 c 0.195313 -0.960938 0.574219 -1.78125 0.902344 -2.363282 c 0.171875 -0.300781 0.332031 -0.539062 0.445312 -0.703124 c -0.433593 -0.128907 -0.808593 -0.289063 -1.117187 -0.453126 c -0.703125 -0.375 -1.070313 -0.746093 -1.101563 -0.777343 c -0.203124 -0.214844 -0.195312 -0.550781 0.015626 -0.753907 c 0.210937 -0.207031 0.546874 -0.199218 0.753906 0.011719 l 0.035156 0.035157 l 0.152344 0.128906 c 0.140625 0.109375 0.355468 0.261718 0.640625 0.414062 c 0.578125 0.300782 1.4375 0.609375 2.589843 0.613282 c 0.8125 0 1.765626 -0.15625 2.878907 -0.582032 c 0.28125 -0.261718 0.605469 -0.5 0.976562 -0.707031 c 0.914063 -0.5 1.832031 -0.726563 2.707031 -0.726563 c 0.996094 0 1.925782 0.292969 2.726563 0.753907 c 0.804687 0.464843 1.484375 1.101562 2.011719 1.816406 c 0.316406 0.429687 0.734375 0.851563 1.253906 1.15625 s 1.136719 0.503906 1.890625 0.503906 c 0.515625 0 1.097656 -0.097656 1.757813 -0.328125 c -0.160157 -0.257812 -0.402344 -0.503906 -0.792969 -0.730468 c -0.257813 -0.144532 -0.347657 -0.472657 -0.203125 -0.726563 c 0.144531 -0.257813 0.46875 -0.347656 0.726562 -0.203125 c 0.628906 0.355469 1.050782 0.828125 1.296875 1.320312 c 0.25 0.488282 0.320313 0.988282 0.320313 1.410157 c 0 0.738281 -0.214844 1.273437 -0.226563 1.3125 z m -0.203125 -6.535157 c -1.246094 0 -2.335937 -0.339843 -3.21875 -0.847656 c -0.121094 0.171875 -0.289062 0.390625 -0.503906 0.625 c -0.484375 0.53125 -1.191406 1.152344 -2.140625 1.492188 c -0.28125 0.097656 -0.585937 -0.042969 -0.683594 -0.320313 c -0.097656 -0.28125 0.046875 -0.585937 0.324219 -0.683593 c 0.699219 -0.25 1.285156 -0.738282 1.691406 -1.183594 c 0.1875 -0.203125 0.332032 -0.394532 0.4375 -0.542969 c -0.523437 -0.445313 -0.941406 -0.949219 -1.226562 -1.472656 c -0.269532 -0.5 -0.425782 -1.015625 -0.429688 -1.515625 c 0 -0.292969 0.242188 -0.53125 0.535156 -0.53125 c 0.292969 0 0.535157 0.238281 0.535157 0.53125 c -0.003907 0.269531 0.089843 0.628906 0.296875 1.007812 c 0.207031 0.378906 0.519531 0.769532 0.925781 1.125 c 0.816406 0.707032 1.992187 1.246094 3.457031 1.246094 c 0.296875 0 0.535156 0.242188 0.535156 0.535156 c 0 0.292969 -0.238281 0.535156 -0.535156 0.535156 z m 4.207032 7.511719 c -0.1875 0.222657 -0.523438 0.257813 -0.75 0.066407 c -0.230469 -0.183594 -0.261719 -0.523438 -0.074219 -0.75 c 0.582031 -0.703126 0.796875 -1.417969 0.796875 -2.097657 c 0.003906 -0.621093 -0.1875 -1.21875 -0.484375 -1.722656 c -0.292969 -0.503906 -0.699219 -0.90625 -1.089844 -1.132813 c -0.265625 -0.148437 -0.511719 -0.21875 -0.707031 -0.21875 c -0.296875 0 -0.535156 -0.238281 -0.535156 -0.53125 c 0 -0.296874 0.238281 -0.535156 0.535156 -0.535156 c 0.324218 0 0.640625 0.078125 0.945312 0.210938 c 0.300782 0.132812 0.582032 0.320312 0.847656 0.546875 c 0.527344 0.457031 0.976563 1.078125 1.257813 1.808593 c 0.1875 0.484376 0.300781 1.019532 0.300781 1.574219 c 0 0.914063 -0.3125 1.894531 -1.042968 2.78125 z m 0 0" fill="#5e5c64"/>
    <path d="m 54.421875 77.527344 l 0.035156 0.03125 z m 0 0" fill="#5e5c64"/>
    <path d="m 86.453125 34.367188 c -3.972656 -4.640626 -9.941406 -7.804688 -17.589844 -8.265626 c -0.625 -0.035156 -1.242187 -0.054687 -1.855469 -0.054687 c -6.433593 0 -12.351562 2.085937 -16.691406 5.921875 c -4.339844 3.824219 -7.042968 9.425781 -7.035156 16.132812 c 0 0.152344 0 0.304688 0.003906 0.457032 l -0.007812 0.808594 l -5.519532 9.753906 c -0.296874 0.527344 -0.449218 1.113281 -0.449218 1.699218 c 0 0.492188 0.105468 0.984376 0.316406 1.441407 c 0.445312 0.972656 1.320312 1.671875 2.359375 1.914062 v 0.007813 l 2.539063 0.699218 l 1.003906 9.679688 l 0.007812 -0.003906 c 0.070313 1.410156 0.699219 2.734375 1.765625 3.664062 c 0.949219 0.828125 2.164063 1.277344 3.410157 1.277344 c 0.125 0 0.25 -0.011719 0.375 -0.023438 l 2.878906 0.230469 l 0.144531 -0.015625 l 0.042969 -0.003906 c 0.113281 0 0.214844 0.039062 0.292968 0.113281 l 0.007813 0.003907 c 0.089844 0.082031 0.144531 0.203124 0.144531 0.328124 v 9.914063 h 26.871094 v -1.507813 s 0 -4.074218 0 -5.703124 c -0.003906 -0.652344 0.125 -1.949219 0.382812 -3.195313 c 0.125 -0.628906 0.285157 -1.25 0.464844 -1.792969 c 0.175782 -0.539062 0.378906 -0.996094 0.550782 -1.261718 c 1.785156 -2.882813 4.3125 -5.246094 6.625 -8.589844 c 2.3125 -3.335938 4.285156 -7.667969 4.824218 -14.242188 c 0.066406 -0.824218 0.101563 -1.648437 0.101563 -2.46875 c 0 -6.230468 -1.992188 -12.28125 -5.964844 -16.917968 z m 2.863281 19.136718 c -0.523437 6.109375 -2.230468 9.765625 -4.300781 12.785156 c -2.066406 3.023438 -4.621094 5.394532 -6.703125 8.699219 c -0.363281 0.582031 -0.628906 1.230469 -0.855469 1.917969 c -0.339843 1.03125 -0.582031 2.152344 -0.746093 3.199219 c -0.164063 1.046875 -0.253907 2 -0.253907 2.730469 v 4.199218 h -20.851562 v -6.902344 c 0 -0.984374 -0.414063 -1.917968 -1.148438 -2.570312 c -0.636719 -0.574219 -1.460937 -0.882812 -2.304687 -0.882812 c -0.058594 0 -0.121094 0.003906 -0.179688 0.007812 l -2.875 -0.226562 l -0.140625 0.015624 l -0.246093 0.011719 c -0.523438 0 -1.035157 -0.1875 -1.433594 -0.535156 c -0.460938 -0.402344 -0.730469 -0.976563 -0.75 -1.589844 v -0.054687 l -1.222656 -11.777344 l -4.574219 -1.265625 l -0.054688 -0.007813 c -0.140625 -0.027343 -0.257812 -0.121093 -0.316406 -0.25 l -0.039063 -0.1875 l 0.054688 -0.214843 l 5.90625 -10.433594 l 0.015625 -1.628906 v -0.019531 c -0.003906 -0.140626 -0.003906 -0.28125 -0.003906 -0.421876 c 0.007812 -5.90625 2.304687 -10.582031 6.019531 -13.878906 c 3.714844 -3.289062 8.90625 -5.167968 14.695312 -5.167968 c 0.550782 0 1.109376 0.019531 1.667969 0.050781 l 0.09375 -1.5 l -0.09375 1.5 c 6.929688 0.4375 12.03125 3.203125 15.492188 7.222656 c 3.449219 4.019531 5.242187 9.359375 5.242187 14.957031 c 0 0.738282 -0.03125 1.476563 -0.09375 2.21875 z m 0 0" fill="#5e5c64"/>
</svg>
