<?xml version="1.0" encoding="UTF-8"?>
<svg height="128px" viewBox="0 0 128 128" width="128px" xmlns="http://www.w3.org/2000/svg" xmlns:xlink="http://www.w3.org/1999/xlink">
    <filter id="a" height="100%" width="100%" x="0%" y="0%">
        <feColorMatrix color-interpolation-filters="sRGB" values="0 0 0 0 1 0 0 0 0 1 0 0 0 0 1 0 0 0 1 0"/>
    </filter>
    <mask id="b">
        <g filter="url(#a)">
            <rect fill-opacity="0.1" height="153.6" width="153.6" x="-12.8" y="-12.8"/>
        </g>
    </mask>
    <clipPath id="c">
        <rect height="152" width="192"/>
    </clipPath>
    <path d="m 124.15625 65.230469 c 0 33.136719 -26.863281 60 -60 60 s -60 -26.863281 -60 -60 s 26.863281 -60 60 -60 s 60 26.863281 60 60 z m 0 0" fill="#d5d3cf"/>
    <path d="m 64.15625 7.230469 c 30.929688 0 56 25.070312 56 56 v 2 c 0 30.925781 -25.070312 56 -56 56 c -30.925781 0 -56 -25.074219 -56 -56 v -2 c 0 -30.929688 25.074219 -56 56 -56 z m 0 0" fill="#d5d3cf"/>
    <path d="m 124.15625 63.230469 c 0 33.136719 -26.863281 60 -60 60 s -60 -26.863281 -60 -60 s 26.863281 -60 60 -60 s 60 26.863281 60 60 z m 0 0" fill="#f6f5f4"/>
    <path d="m 118.15625 63.230469 c 0 29.824219 -24.175781 54 -54 54 s -54 -24.175781 -54 -54 s 24.175781 -54 54 -54 s 54 24.175781 54 54 z m 0 0" fill="#241f31"/>
    <g mask="url(#b)">
        <g clip-path="url(#c)" transform="matrix(1 0 0 1 -8 -16)">
            <path d="m 72.15625 25.230469 c -29.824219 0 -54 24.175781 -54 54 c 0.011719 0.390625 0.023438 0.78125 0.042969 1.171875 c 0.453125 -29.484375 24.472656 -53.152344 53.957031 -53.171875 c 29.355469 0.015625 53.320312 23.480469 53.960938 52.828125 c 0.015624 -0.277344 0.027343 -0.550782 0.039062 -0.828125 c 0 -29.824219 -24.175781 -54 -54 -54 z m 0 0"/>
        </g>
    </g>
    <g fill="#ffffff">
        <path d="m 65.800781 31.011719 c -12.734375 -0.785157 -23.453125 7.226562 -23.210937 20.277343 l -0.007813 1.179688 l -5.535156 9.769531 c -0.296875 0.523438 -0.324219 1.160157 -0.070313 1.710938 c 0.253907 0.550781 0.753907 0.949219 1.347657 1.0625 l 3.417969 0.945312 l 1.074218 10.359375 c 0.027344 0.996094 0.472656 1.933594 1.226563 2.59375 c 0.75 0.652344 1.746093 0.964844 2.738281 0.855469 l 2.730469 0.214844 c 0.53125 -0.058594 1.066406 0.109375 1.464843 0.46875 c 0.398438 0.359375 0.625 0.871093 0.625 1.40625 v 8.101562 h 23.097657 s 0 -3.910156 0 -5.484375 c 0 -1.574218 0.542969 -5.175781 1.574219 -6.824218 c 3.746093 -5.984376 9.839843 -9.167969 10.867187 -21.449219 c 1.027344 -12.277344 -6.300781 -24.261719 -21.339844 -25.1875 z m 15.917969 22.832031 c -1.132812 0 -2.3125 0 -2.3125 0 c -0.566406 -0.003906 -1.023438 -0.460938 -1.023438 -1.023438 v -1.425781 c 0 -0.523437 -0.425781 -0.949219 -0.949218 -0.949219 c -0.523438 0 -0.949219 0.425782 -0.949219 0.949219 v 1.425781 c 0.003906 1.613282 1.308594 2.917969 2.921875 2.917969 h 1.984375 c -1.089844 4.492188 -4.085937 6.1875 -7.09375 4.488281 c -1.960937 -1.109374 -1.792969 -2.765624 -2.707031 -4.136718 v -5.011719 c 0 -0.523437 -0.425782 -0.949219 -0.949219 -0.949219 s -0.949219 0.425782 -0.949219 0.949219 v 3.527344 c -1.359375 -0.585938 -3.527344 -0.960938 -7.144531 -0.960938 c -0.980469 0 -1.882813 -0.007812 -2.726563 -0.023437 v -3.808594 c 0 -0.523438 -0.425781 -0.945312 -0.949218 -0.945312 c -0.523438 0 -0.945313 0.421874 -0.945313 0.945312 v 3.757812 c -7.667969 -0.296874 -8.796875 -1.53125 -9.398437 -4.628906 c -0.023438 -0.183594 -0.042969 -0.367187 -0.058594 -0.546875 h 4.023438 c 1.910156 0 3.457031 -1.550781 3.457031 -3.457031 v -1.492188 c 0 -0.523437 -0.425781 -0.949218 -0.949219 -0.949218 s -0.945312 0.425781 -0.945312 0.949218 v 1.492188 c -0.003907 0.859375 -0.699219 1.558594 -1.5625 1.558594 h -4.027344 c 0.230468 -2.636719 1.476562 -4.792969 3.414062 -6.761719 c 1.480469 -1.511719 3.304688 -2.679687 5.375 -3.472656 v 2.898437 c 0.003906 0.816406 0.289063 1.644532 0.839844 2.347656 c 0.273438 0.351563 0.621094 0.667969 1.050781 0.894532 c 0.421875 0.234375 0.929688 0.371094 1.46875 0.371094 h 3.046875 c 0.523438 0 0.945313 -0.425782 0.945313 -0.945313 c 0 -0.523437 -0.421875 -0.949219 -0.945313 -0.949219 c 0 0 -1.523437 0 -3.046875 0 c -0.222656 -0.003906 -0.402343 -0.054687 -0.570312 -0.144531 c -0.25 -0.132813 -0.484375 -0.378906 -0.648438 -0.679687 c -0.164062 -0.300782 -0.25 -0.648438 -0.246093 -0.894532 c 0 -0.558594 0 -2.085937 0 -3.5 c 1.574218 -0.40625 3.25 -0.621094 5.003906 -0.621094 c 0.445312 0 0.898437 0.011719 1.351562 0.042969 c 3.976563 0.242188 7.417969 1.488281 10.113282 3.632813 v 8.332031 c 0 0.527344 0.425781 0.949219 0.949218 0.949219 c 0.523438 0 0.945313 -0.421875 0.945313 -0.949219 v -6.546875 c 0.050781 0.058594 0.105469 0.113281 0.152343 0.167969 c 2.71875 3.144531 4.179688 7.480469 4.144532 12.082031 c -0.019532 0.378906 -0.050782 0.738281 -0.089844 1.09375 z m 0 0"/>
        <path d="m 69.691406 40.886719 c -0.523437 0 -0.945312 0.425781 -0.945312 0.949219 v 3.0625 c -0.003906 0.664062 -0.539063 1.203124 -1.203125 1.203124 h -3.378907 c -0.523437 0 -0.949218 0.421876 -0.949218 0.945313 c 0 0.527344 0.425781 0.953125 0.949218 0.953125 h 3.378907 c 1.710937 -0.003906 3.097656 -1.390625 3.097656 -3.101562 v -3.0625 c 0 -0.523438 -0.425781 -0.949219 -0.949219 -0.949219 z m 0 0"/>
    </g>
</svg>
